<?xml version="1.0" standalone="no"?>
<!DOCTYPE svg PUBLIC "-//W3C//DTD SVG 20010904//EN"
 "http://www.w3.org/TR/2001/REC-SVG-20010904/DTD/svg10.dtd">
<svg version="1.0" xmlns="http://www.w3.org/2000/svg"
 width="1024.000000pt" height="1024.000000pt" viewBox="0 0 1024.000000 1024.000000"
 preserveAspectRatio="xMidYMid meet">

<g transform="translate(0.000000,1024.000000) scale(0.100000,-0.100000)"
fill="#000000" stroke="none">
<path d="M0 5120 l0 -5120 5120 0 5120 0 0 5120 0 5120 -5120 0 -5120 0 0
-5120z m8367 4224 c12 -19 11 -24 -6 -45 -16 -20 -23 -22 -38 -13 -22 14 -29
50 -12 70 16 19 38 14 56 -12z m-5042 -19 c0 -25 -4 -30 -25 -30 -16 0 -26 6
-28 18 -6 30 6 49 30 45 18 -2 23 -9 23 -33z m4524 -45 c9 -31 21 -44 53 -61
l41 -21 -41 -24 c-29 -17 -44 -35 -52 -62 -18 -53 -27 -58 -34 -19 -8 44 -38
83 -71 91 -34 9 -31 20 9 34 26 10 39 23 53 57 10 25 21 45 24 45 3 0 11 -18
18 -40z m-3491 -11 c4 -30 -22 -46 -44 -28 -15 12 -19 41 -7 53 16 16 48 1 51
-25z m2500 5 c4 -29 -23 -51 -43 -34 -16 13 -20 42 -8 54 14 14 48 1 51 -20z
m-828 -14 c0 -27 -19 -35 -38 -17 -12 13 -13 19 -3 31 16 19 41 10 41 -14z
m-3290 -15 c0 -8 -4 -15 -10 -15 -5 0 -10 7 -10 15 0 8 5 15 10 15 6 0 10 -7
10 -15z m3700 -145 c0 -5 -4 -10 -10 -10 -5 0 -10 5 -10 10 0 6 5 10 10 10 6
0 10 -4 10 -10z m-2836 -16 c10 -4 16 -18 16 -36 0 -26 -3 -29 -27 -26 -31 3
-42 30 -23 53 14 17 13 17 34 9z m3891 -54 c39 -43 -13 -107 -61 -75 -31 20
-32 59 -2 79 29 21 41 20 63 -4z m-1945 -31 c538 -44 1118 -227 1570 -497 652
-390 1162 -936 1493 -1597 331 -663 476 -1475 392 -2207 -94 -836 -406 -1550
-941 -2158 -243 -277 -638 -599 -959 -782 -288 -164 -678 -321 -1003 -402
-434 -109 -969 -136 -1422 -70 -256 37 -588 126 -845 227 -1020 401 -1883
1313 -2225 2354 -88 267 -153 553 -187 823 -23 190 -23 669 1 870 21 177 74
442 128 639 237 865 796 1648 1546 2165 454 313 1024 531 1622 620 19 3 94 10
165 16 72 5 150 12 175 14 65 5 344 -3 490 -15z m1320 -33 c0 -32 -26 -53 -48
-39 -24 14 -27 54 -7 70 24 17 55 -1 55 -31z m-3629 -16 c26 -15 26 -66 -1
-80 -42 -23 -82 29 -53 69 16 24 26 26 54 11z m-566 -225 c14 -13 25 -33 25
-45 0 -28 -35 -60 -65 -60 -30 0 -65 32 -65 60 0 25 42 70 65 70 9 0 27 -11
40 -25z m-516 -83 c10 -35 19 -46 58 -65 l46 -24 -44 -24 c-36 -20 -47 -32
-59 -71 -8 -27 -17 -48 -20 -48 -3 0 -13 23 -23 51 -16 45 -24 53 -65 71 l-47
21 41 18 c47 20 71 49 80 97 8 39 16 33 33 -26z m5508 -108 c8 -21 -13 -42
-28 -27 -13 13 -5 43 11 43 6 0 13 -7 17 -16z m582 -113 c25 -83 64 -122 140
-142 28 -7 51 -16 51 -19 0 -4 -29 -19 -64 -34 -76 -32 -109 -73 -127 -156 -7
-30 -16 -59 -19 -63 -4 -5 -15 24 -25 63 -25 100 -74 151 -168 174 -36 9 -28
20 27 36 72 20 112 60 138 140 12 39 23 70 24 70 1 0 11 -31 23 -69z m-6049
-390 c16 -32 12 -51 -15 -63 -22 -10 -29 -9 -47 10 -20 20 -20 22 -4 46 20 31
51 34 66 7z m-472 -160 c5 -32 -23 -54 -49 -40 -19 10 -26 49 -12 63 4 4 19 6
33 4 18 -2 26 -10 28 -27z m7250 7 c18 -18 14 -46 -7 -58 -24 -12 -48 -4 -54
19 -10 40 33 67 61 39z m-370 -170 c30 -30 -4 -77 -41 -57 -29 17 -15 69 18
69 6 0 16 -5 23 -12z m-6987 -424 c11 -10 39 -26 61 -35 48 -18 50 -31 8 -43
-50 -15 -97 -65 -111 -119 -14 -57 -24 -60 -34 -10 -11 62 -31 89 -89 119 -31
16 -56 32 -56 35 0 4 14 13 32 20 49 20 96 66 108 107 6 20 14 44 17 52 3 9
13 -11 24 -46 10 -33 28 -69 40 -80z m7287 -231 c-2 -20 -9 -29 -25 -31 -18
-3 -23 1 -23 21 0 29 7 37 32 37 15 0 19 -6 16 -27z m-7578 -362 c13 -25 3
-51 -24 -61 -41 -15 -68 18 -50 64 9 23 61 21 74 -3z m7887 -39 c8 -34 -8 -57
-42 -57 -34 0 -50 23 -41 58 10 43 72 43 83 -1z m251 -291 c22 -14 10 -56 -17
-59 -37 -6 -52 26 -25 52 18 18 24 19 42 7z m-180 -253 c17 -17 15 -44 -4 -62
-22 -23 -41 -20 -59 8 -13 19 -14 29 -5 45 12 23 49 28 68 9z m-8434 -331 c9
-46 31 -74 66 -82 46 -10 45 -22 -4 -44 -37 -16 -47 -26 -57 -60 -7 -23 -15
-41 -18 -41 -4 0 -15 19 -26 42 -21 43 -29 50 -80 69 l-30 11 47 24 c46 23 78
64 78 99 0 28 18 15 24 -18z m8644 -599 c32 -32 -3 -88 -41 -67 -30 17 -16 79
18 79 6 0 16 -5 23 -12z m-8537 -58 c35 -19 20 -90 -20 -90 -20 0 -51 30 -51
48 0 17 28 52 42 52 5 0 18 -5 29 -10z m8517 -393 c27 -32 -21 -83 -53 -57
-15 13 -20 51 -8 63 11 12 50 8 61 -6z m-225 -601 c6 -16 -16 -40 -26 -29 -4
3 -7 15 -7 25 0 21 25 24 33 4z m277 -100 c20 -26 8 -61 -22 -64 -22 -3 -29 2
-34 22 -11 44 29 74 56 42z m-8380 -95 c0 -19 -23 -35 -34 -24 -14 15 -5 43
14 43 13 0 20 -7 20 -19z m240 -433 c0 -7 9 -31 21 -54 15 -33 30 -46 64 -61
25 -10 44 -21 42 -25 -1 -4 -22 -18 -47 -30 -44 -22 -59 -42 -81 -103 l-11
-30 -18 49 c-24 62 -44 83 -92 98 -47 14 -48 23 -4 38 46 15 83 54 97 101 11
35 29 45 29 17z m7750 -63 c7 -8 10 -25 6 -40 -11 -41 -76 -29 -76 15 0 36 47
53 70 25z m-162 -594 c11 -23 32 -42 60 -56 l44 -22 -49 -24 c-40 -20 -50 -31
-63 -69 -9 -25 -18 -51 -21 -59 -3 -8 -15 14 -28 48 -21 59 -26 64 -73 85
l-51 23 49 24 c48 23 63 42 85 104 l11 30 10 -25 c5 -14 17 -40 26 -59z
m-7329 17 c17 -43 -31 -85 -64 -58 -15 13 -20 61 -8 73 3 4 19 7 35 7 20 0 31
-6 37 -22z m161 -228 c6 -12 8 -30 5 -40 -8 -26 -51 -26 -65 -1 -13 25 -13 27
6 45 21 22 41 20 54 -4z m6774 -142 c15 -25 -4 -53 -35 -53 -25 0 -37 30 -25
61 8 20 46 14 60 -8z m-6449 -216 c29 -140 71 -180 218 -207 20 -4 37 -11 37
-15 0 -4 -25 -12 -56 -19 -120 -27 -161 -61 -190 -159 -32 -110 -31 -108 -37
-92 -3 8 -11 41 -17 72 -21 108 -81 158 -214 181 -37 6 -66 14 -66 17 0 3 36
13 79 23 44 10 94 28 112 40 43 29 75 87 89 157 21 103 23 103 45 2z m6347
-124 c11 -36 21 -47 57 -64 l45 -22 -41 -21 c-29 -14 -47 -32 -59 -61 -10 -22
-21 -40 -24 -40 -4 0 -12 18 -19 40 -12 39 -49 70 -86 70 -28 0 -16 18 21 30
36 12 74 59 74 93 0 32 18 17 32 -25z m-5748 -440 c20 -28 20 -43 0 -62 -21
-22 -61 -20 -74 3 -14 27 -13 47 6 65 22 22 50 20 68 -6z m5461 -104 c10 -23
25 -40 45 -47 16 -6 30 -14 30 -17 0 -4 -16 -14 -35 -23 -26 -12 -37 -25 -42
-47 -8 -44 -18 -44 -32 -1 -9 30 -19 41 -48 53 l-38 15 37 17 c26 11 40 26 49
51 7 19 14 35 16 35 1 0 9 -16 18 -36z m-525 -139 c0 -8 -7 -15 -15 -15 -8 0
-15 7 -15 15 0 8 7 15 15 15 8 0 15 -7 15 -15z m-5292 -7 c27 -27 -1 -73 -35
-61 -24 9 -9 73 17 73 3 0 11 -5 18 -12z m874 -113 c10 -22 9 -29 -10 -47 -18
-19 -25 -20 -47 -10 -44 20 -28 82 22 82 15 0 27 -9 35 -25z m3976 -27 c29
-29 -4 -76 -42 -62 -16 6 -22 54 -9 67 10 11 38 8 51 -5z m-4450 -209 c3 -28
-16 -43 -43 -33 -15 6 -21 45 -8 58 16 16 48 1 51 -25z m551 -68 c13 -24 -8
-55 -35 -49 -20 3 -30 29 -20 54 8 20 43 17 55 -5z m3945 -237 c20 -19 20 -25
2 -50 -12 -15 -18 -17 -33 -8 -23 14 -28 41 -13 59 16 19 25 19 44 -1z"/>
<path d="M5167 8783 c-4 -3 -7 -12 -7 -20 0 -15 26 -18 34 -4 7 11 -18 33 -27
24z"/>
<path d="M5260 8770 c0 -16 5 -21 23 -18 12 2 22 10 22 18 0 8 -10 16 -22 18
-18 3 -23 -2 -23 -18z"/>
<path d="M5563 8764 c-8 -21 13 -42 28 -27 13 13 5 43 -11 43 -6 0 -13 -7 -17
-16z"/>
<path d="M4870 8751 c0 -11 5 -23 11 -27 14 -8 29 14 22 33 -8 20 -33 16 -33
-6z"/>
<path d="M5885 8720 c-4 -6 -3 -16 3 -22 6 -6 12 -6 17 2 4 6 3 16 -3 22 -6 6
-12 6 -17 -2z"/>
<path d="M4566 8713 c-11 -11 -6 -23 9 -23 8 0 15 4 15 9 0 13 -16 22 -24 14z"/>
<path d="M4256 8653 c-12 -12 -6 -33 9 -33 8 0 15 6 15 14 0 17 -14 28 -24 19z"/>
<path d="M6460 8535 c0 -29 34 -36 44 -9 8 21 -1 34 -25 34 -14 0 -19 -7 -19
-25z"/>
<path d="M3870 8501 c0 -19 23 -35 34 -24 14 15 5 43 -14 43 -13 0 -20 -7 -20
-19z"/>
<path d="M4965 8513 c-437 -36 -966 -197 -1359 -414 -588 -324 -1025 -787
-1347 -1424 -236 -468 -359 -1007 -359 -1576 0 -321 25 -522 102 -824 130
-509 321 -895 647 -1305 100 -125 332 -362 452 -462 459 -378 984 -621 1569
-722 198 -35 293 -43 510 -45 558 -5 1145 142 1622 404 123 68 356 222 453
300 514 412 897 951 1095 1543 198 594 241 1157 134 1745 -53 292 -133 558
-239 802 -370 850 -1100 1525 -1959 1810 -390 129 -680 176 -1076 173 -113 -1
-223 -3 -245 -5z m395 -373 c0 -19 -25 -34 -41 -24 -13 8 -11 52 4 57 17 6 37
-12 37 -33z m424 -31 c46 -36 32 -108 -24 -128 -37 -12 -72 -1 -94 31 -23 32
-20 65 9 93 30 31 73 32 109 4z m-974 -9 c41 -41 8 -120 -51 -120 -32 0 -69
41 -69 76 0 33 34 64 70 64 17 0 39 -9 50 -20z m606 -150 c58 -23 73 -92 29
-135 -50 -51 -135 -15 -135 57 1 36 14 58 45 76 25 14 28 14 61 2z m-1180 -8
c23 -15 35 -51 24 -72 -11 -20 -40 -40 -59 -40 -19 0 -51 39 -51 62 0 42 52
73 86 50z m-258 -96 c73 -38 101 -118 65 -185 -52 -99 -192 -106 -247 -13 -68
120 61 261 182 198z m2674 -43 c22 -20 23 -61 1 -85 -34 -38 -103 -11 -103 40
0 54 62 81 102 45z m-552 -19 c0 -8 21 -56 46 -105 31 -60 44 -97 40 -112 -3
-13 -27 -69 -54 -126 l-48 -104 -19 49 c-10 27 -31 75 -46 106 -16 32 -29 70
-29 85 0 29 89 222 103 223 4 0 7 -7 7 -16z m825 -128 c62 -26 74 -89 26 -137
-20 -20 -39 -29 -61 -29 -41 0 -90 47 -90 87 0 34 24 71 54 83 29 12 32 12 71
-4z m-3312 -47 c25 -34 13 -78 -27 -98 -25 -12 -31 -11 -55 6 -35 26 -40 74
-11 103 28 28 67 23 93 -11z m1083 5 c15 -19 7 -52 -15 -63 -9 -5 -60 -21
-114 -35 -219 -58 -484 -179 -689 -315 -168 -112 -293 -217 -434 -365 -115
-120 -136 -132 -169 -96 -17 18 -17 21 1 54 28 53 182 215 292 307 274 229
578 393 912 493 160 48 192 51 216 20z m882 -43 c-3 -29 -25 -34 -41 -9 -8 12
-7 21 2 32 19 22 43 8 39 -23z m-2226 -148 c24 -21 23 -68 -2 -93 -58 -58
-142 20 -94 88 18 27 69 30 96 5z m2013 -93 c3 -5 1 -10 -4 -10 -6 0 -11 5
-11 10 0 6 2 10 4 10 3 0 8 -4 11 -10z m-64 -33 c-6 -8 -8 -17 -4 -20 3 -4 12
-2 20 4 7 6 13 8 13 4 0 -4 -8 -14 -17 -21 -15 -11 -16 -15 -4 -26 10 -9 12
-10 7 0 -4 7 0 15 11 19 10 3 26 13 36 22 17 14 17 13 7 -14 -6 -16 -16 -35
-22 -42 -7 -9 -7 -13 0 -13 6 0 14 9 17 21 4 11 10 18 13 15 3 -4 12 6 19 21
l13 28 -3 -32 c-3 -27 0 -33 15 -33 11 0 17 -4 14 -9 -10 -15 23 -6 44 12 13
11 20 12 23 4 2 -7 11 2 21 18 9 17 15 22 12 12 -3 -10 -6 -22 -6 -27 0 -5 -9
-11 -20 -15 -16 -5 -17 -9 -7 -19 10 -11 14 -11 23 2 6 8 15 12 21 9 6 -4 8 3
6 16 -3 15 3 26 17 35 20 12 20 11 11 -7 -11 -20 -5 -51 13 -63 12 -8 36 9 36
25 0 6 -7 2 -16 -9 -15 -19 -15 -18 -11 3 3 12 0 24 -7 27 -6 3 0 3 13 0 20
-5 23 -3 17 11 -5 14 -4 16 7 6 8 -6 13 -27 12 -47 -2 -43 5 -48 41 -29 25 13
26 20 1 16 -4 -1 -3 7 2 17 7 13 6 23 -2 32 -10 12 -9 12 5 1 10 -7 14 -19 11
-28 -5 -12 -2 -15 10 -10 13 5 14 2 5 -24 -6 -17 -8 -33 -4 -36 3 -4 6 -1 6 6
0 7 5 9 10 6 6 -4 7 -12 3 -18 -4 -7 0 -6 10 2 17 14 24 33 10 29 -5 -2 -8 2
-8 7 0 6 3 9 7 8 4 -2 4 5 1 15 -3 9 -3 14 2 10 4 -4 14 -3 21 3 8 7 14 7 19
-1 4 -6 1 -9 -6 -8 -8 2 -14 -7 -15 -19 -1 -25 11 -31 20 -10 4 6 5 3 2 -9 -3
-17 1 -20 20 -16 24 4 33 -11 14 -23 -5 -3 -10 -11 -10 -18 0 -18 23 10 25 30
1 24 14 43 28 43 6 0 3 -6 -8 -13 -13 -10 -15 -16 -6 -21 6 -4 9 -12 6 -17 -4
-5 2 -6 11 -2 13 5 16 3 11 -10 -3 -9 -2 -17 3 -17 6 0 10 5 10 12 0 6 3 9 6
5 4 -3 13 0 20 8 14 14 54 9 54 -7 0 -5 -8 -4 -19 1 -19 10 -31 6 -31 -12 0
-5 7 -7 15 -3 8 3 14 2 13 -2 -1 -4 2 -15 6 -24 7 -16 10 -16 23 -2 9 8 18 12
21 9 4 -3 0 -10 -8 -15 -11 -7 -8 -9 10 -7 14 1 32 10 41 21 12 15 18 16 24 6
5 -8 4 -11 -2 -7 -6 4 -14 0 -17 -9 -5 -13 -2 -15 15 -11 27 7 12 -9 -16 -17
-11 -3 -3 -4 18 -1 41 4 45 -1 20 -22 -13 -11 -10 -11 9 1 17 10 29 12 33 6 4
-6 11 -8 16 -5 12 8 11 -2 -2 -28 -9 -18 -9 -20 2 -9 7 6 17 12 22 12 4 0 5
-6 1 -12 -6 -10 -4 -10 7 -2 8 6 22 11 32 11 16 0 16 -2 0 -19 -22 -24 -30
-23 -109 13 -103 46 -336 115 -449 133 -189 30 -213 33 -349 32 -84 -1 -136 3
-136 9 0 6 -3 5 -8 -1 -4 -6 -43 -14 -87 -18 -500 -45 -1018 -328 -1343 -735
-44 -55 -56 -64 -86 -66 -41 -2 -45 4 -16 23 12 7 20 8 20 2 0 -5 8 -10 18
-10 15 1 14 2 -3 12 -19 12 -19 12 5 19 l25 7 -26 1 c-15 1 -29 -5 -33 -14 -3
-8 -14 -15 -25 -15 -11 0 -22 -6 -24 -12 -3 -8 -6 -6 -6 5 -1 10 6 17 18 17
11 0 23 5 27 12 5 8 1 9 -12 5 -17 -6 -17 -6 -3 5 9 7 14 20 12 28 -4 13 -3
13 6 0 6 -8 24 -15 40 -15 23 -1 28 2 19 12 -8 10 -14 10 -23 3 -9 -8 -15 -8
-20 0 -3 5 1 10 9 10 9 0 16 5 16 12 0 6 9 3 20 -7 20 -18 21 -18 38 -1 16 18
16 18 -5 7 -25 -13 -25 -12 -27 36 -1 17 2 29 6 27 5 -3 8 1 8 8 0 10 3 9 9
-1 7 -10 4 -19 -7 -28 -15 -12 -14 -13 6 -3 17 8 22 18 19 31 -3 12 0 19 8 19
8 0 26 11 41 25 15 14 23 25 18 25 -5 0 8 11 29 25 38 27 51 43 19 26 -14 -7
-21 -5 -30 10 -10 15 -10 19 0 17 7 -2 16 -7 19 -11 3 -5 9 -2 12 7 6 15 -5
21 -28 16 -5 -1 -7 2 -2 6 14 15 67 11 67 -4 0 -12 -3 -12 -15 -2 -13 11 -14
10 -9 -4 4 -9 12 -15 18 -13 6 2 20 0 31 -5 19 -9 19 -8 2 6 -21 17 -15 58 8
50 7 -3 16 -1 20 5 3 6 -1 11 -10 11 -9 0 -14 4 -10 9 3 5 1 12 -5 16 -5 3
-10 1 -10 -5 0 -11 -24 -40 -33 -40 -2 0 -4 7 -4 15 0 8 6 15 13 15 6 0 15 7
18 16 4 9 9 14 13 11 8 -9 43 12 43 26 0 7 8 21 17 32 15 19 15 19 9 -10 -4
-16 -15 -36 -24 -43 -16 -13 -15 -14 3 -10 12 2 21 13 23 26 3 21 4 21 34 6
17 -9 28 -11 24 -6 -3 5 5 14 17 21 13 7 24 23 25 37 1 15 -2 23 -8 19 -6 -4
-8 -11 -5 -16 4 -5 1 -9 -5 -9 -6 0 -9 -4 -5 -9 3 -5 1 -12 -5 -16 -5 -3 -10
-2 -10 3 0 6 -7 13 -16 16 -14 5 -15 4 -4 -9 7 -9 9 -19 5 -23 -4 -4 -10 -1
-12 6 -3 6 -9 10 -14 6 -5 -3 -9 1 -9 9 0 16 27 30 41 21 5 -3 9 1 9 9 0 19
42 30 52 14 5 -7 6 1 3 18 -6 29 -6 29 9 11 10 -12 16 -15 16 -7 0 11 3 11 18
0 15 -13 16 -12 4 3 -11 14 -10 18 6 27 11 6 23 7 27 3 4 -4 5 0 3 8 -3 8 -11
14 -18 12 -10 -2 -11 0 -2 11 7 8 9 17 5 20 -3 4 -1 7 5 7 6 0 14 -4 17 -10 3
-5 0 -10 -7 -10 -10 0 -9 -3 2 -10 9 -6 17 -5 21 2 4 6 11 3 18 -8 6 -11 11
-14 11 -7 0 6 8 10 18 8 9 -1 11 0 5 2 -7 3 -13 9 -13 15 0 5 7 7 16 4 15 -6
15 -4 3 10 -11 14 -14 14 -23 2 -11 -15 -36 -13 -36 3 0 4 7 6 15 2 10 -3 15
0 13 8 -2 8 3 13 10 11 7 -1 15 5 18 13 4 8 11 15 17 15 5 0 2 -10 -9 -22 -18
-20 -18 -21 -1 -15 12 5 16 3 12 -6 -4 -6 3 -1 14 13 26 31 27 52 4 43 -19 -7
-18 -5 11 17 11 8 17 10 13 3 -4 -7 1 -14 13 -18 11 -3 20 -11 20 -16 0 -6 5
-7 10 -4 16 10 12 21 -12 34 -13 6 -15 9 -5 7 11 -4 17 0 18 12 0 10 3 12 6 4
2 -6 10 -9 16 -5 7 4 6 -1 -2 -10 -9 -11 -10 -17 -2 -17 18 0 26 5 23 14 -2 5
4 6 13 2 9 -3 21 -6 26 -6 6 0 7 -4 4 -10 -3 -6 1 -7 10 -4 9 4 21 18 26 31 5
13 13 21 19 18 15 -9 12 -27 -2 -19 -7 4 -10 3 -5 -1 4 -5 16 -9 26 -10 15 -1
17 3 11 19 -4 12 -13 20 -19 18 -15 -3 -14 15 2 21 7 3 5 6 -5 6 -10 1 -18 -6
-18 -14 0 -8 -5 -15 -10 -15 -7 0 -7 6 -1 19 6 10 8 21 5 24 -3 3 3 4 13 4 10
-1 17 4 15 11 -1 8 2 11 8 7 6 -3 8 -10 5 -15 -3 -4 -2 -16 2 -26 5 -14 8 -15
17 -3 6 8 18 20 27 26 13 10 16 10 16 -2 0 -8 -5 -11 -10 -8 -6 4 -8 -1 -4
-11 4 -10 3 -15 -3 -11 -6 3 -10 1 -10 -4 0 -20 32 -11 38 11 l5 22 8 -22 c5
-12 13 -22 18 -22 7 0 6 9 -1 25 -6 14 -15 25 -20 25 -5 0 -6 5 -2 11 5 8 10
6 16 -5 11 -20 32 -21 24 0 -3 8 -2 12 3 9 6 -3 14 3 20 12 6 10 11 12 11 6 0
-7 5 -13 11 -13 5 0 7 6 3 13 -5 8 -2 7 10 -2 11 -9 13 -17 6 -21 -7 -5 -6
-11 5 -20 13 -11 14 -10 9 5 -6 15 -4 16 16 5 15 -8 20 -8 16 -1 -10 16 3 34
17 23 7 -4 19 -8 27 -7 8 0 18 -4 23 -10 4 -5 6 1 3 15 -5 33 18 81 27 56 3
-8 2 -18 -4 -21 -5 -4 -7 -11 -3 -16 9 -14 36 11 30 28 -4 10 2 12 22 9 l27
-5 -24 18 c-23 18 -23 18 -2 24 12 3 19 1 15 -5 -3 -5 2 -16 12 -23 11 -9 14
-14 7 -15 -15 0 -18 -20 -4 -20 5 0 17 7 26 17 14 14 18 14 27 2 7 -10 8 -8 3
9 -5 16 -2 22 9 22 10 0 13 -6 9 -17 -6 -16 -5 -16 11 -4 17 14 16 16 -6 34
-23 18 -23 18 0 7 12 -6 22 -7 22 -1 0 5 18 7 40 5 25 -2 39 0 35 6 -12 19 8
10 30 -15 19 -20 24 -21 29 -9 3 8 10 12 16 9 5 -3 10 -1 10 4 0 6 5 11 11 11
5 0 7 -4 4 -10 -3 -5 -2 -10 4 -10 5 0 12 6 14 13 3 7 6 4 6 -6 1 -12 -5 -17
-16 -15 -24 3 -43 -10 -43 -30 0 -13 2 -13 15 4 8 10 15 13 15 7 0 -9 10 -7
32 7 17 10 36 16 41 13 6 -4 8 1 4 11 -8 20 -1 36 15 36 7 0 7 -4 -1 -13z
m200 -30 c-10 -9 -11 -8 -5 6 3 10 9 15 12 12 3 -3 0 -11 -7 -18z m-31 -15
c-6 -2 -8 -8 -4 -13 9 -15 -23 -10 -36 6 -14 17 -8 31 9 20 6 -3 8 -11 5 -17
-4 -7 -2 -8 4 -4 7 4 12 15 12 24 0 15 2 15 10 2 6 -10 6 -16 0 -18z m-646
-45 c-6 -18 -34 -31 -34 -17 0 19 5 25 18 22 10 -2 12 3 7 20 -5 19 -4 20 5 6
5 -9 7 -23 4 -31z m846 23 c0 -5 -2 -10 -4 -10 -3 0 -8 5 -11 10 -3 6 -1 10 4
10 6 0 11 -4 11 -10z m-893 -6 c-3 -3 -12 -4 -19 -1 -8 3 -5 6 6 6 11 1 17 -2
13 -5z m-147 -23 c0 -12 -39 -21 -45 -11 -3 5 3 11 12 13 29 8 33 7 33 -2z
m121 -11 c6 0 7 5 4 10 -3 6 -1 10 4 10 15 0 14 -15 -2 -29 -16 -13 -27 -5
-26 18 0 10 2 12 6 4 2 -7 9 -13 14 -13z m1076 1 c0 -11 -5 -18 -9 -15 -4 3
-5 11 -1 19 7 21 12 19 10 -4z m98 -21 c-3 -5 -11 -10 -16 -10 -6 0 -7 5 -4
10 3 6 11 10 16 10 6 0 7 -4 4 -10z m-35 -10 c0 -5 -5 -10 -11 -10 -5 0 -7 5
-4 10 3 6 8 10 11 10 2 0 4 -4 4 -10z m-1465 -40 c-3 -5 -14 -10 -23 -9 -14 0
-13 2 3 9 27 11 27 11 20 0z m38 -17 c-4 -11 -3 -14 5 -9 7 4 12 3 12 -2 0 -5
-11 -9 -25 -9 -28 0 -30 2 -12 22 17 19 28 19 20 -2z m1527 3 c0 -3 -4 -8 -10
-11 -5 -3 -10 -1 -10 4 0 6 5 11 10 11 6 0 10 -2 10 -4z m-1896 -85 c18 -20
30 -75 15 -65 -5 3 -9 -3 -9 -12 0 -10 -3 -14 -6 -11 -4 3 -15 2 -25 -4 -15
-8 -24 -5 -44 15 -29 29 -32 52 -8 78 21 23 55 23 77 -1z m-1199 -26 c30 -29
32 -54 5 -83 -40 -43 -110 -16 -110 41 0 22 43 67 65 67 9 0 27 -11 40 -25z
m1265 -11 c0 -8 -19 -13 -24 -6 -3 5 1 9 9 9 8 0 15 -2 15 -3z m2985 -71 c-13
-88 -63 -267 -98 -350 -104 -246 -265 -440 -485 -587 l-102 -68 -27 34 c-15
18 -59 67 -98 109 -78 84 -231 252 -289 317 l-38 42 97 105 c163 176 293 269
483 345 156 63 320 96 486 99 l78 1 -7 -47z m-4003 10 c22 -20 23 -70 1 -95
-35 -39 -113 -8 -113 45 0 58 69 89 112 50z m993 8 c3 -5 1 -12 -4 -15 -5 -3
-11 1 -15 9 -6 16 9 21 19 6z m-45 -25 c0 -2 -9 -6 -20 -9 -11 -3 -18 -1 -14
4 5 9 34 13 34 5z m-233 -171 c0 -8 -4 -12 -9 -9 -5 3 -6 10 -3 15 9 13 12 11
12 -6z m1127 -66 c-17 -19 -18 -19 -41 3 l-23 22 21 22 22 23 19 -25 c19 -24
20 -26 2 -45z m-195 -36 c13 -46 56 -86 104 -98 44 -11 40 -21 -16 -42 -48
-18 -54 -24 -82 -81 -16 -34 -33 -62 -36 -62 -4 0 -10 16 -13 35 -10 50 -49
91 -106 110 -28 9 -50 20 -50 24 0 4 18 13 40 20 38 11 100 55 100 71 0 20 32
82 39 74 4 -5 13 -28 20 -51z m-1828 16 c26 -26 21 -57 -13 -82 -25 -19 -28
-19 -52 -4 -33 22 -41 52 -22 82 20 31 58 33 87 4z m833 6 c-4 -10 0 -15 16
-15 11 0 19 -4 16 -9 -3 -5 -16 -7 -29 -5 -12 2 -17 2 -10 -2 17 -8 -5 -54
-26 -54 -13 1 -12 3 3 15 14 11 16 15 5 15 -8 0 -10 3 -4 8 6 4 10 14 10 22
-1 14 13 40 21 40 2 0 1 -7 -2 -15z m-584 -23 c29 -23 24 -38 -42 -138 -137
-211 -236 -417 -307 -639 -45 -141 -53 -155 -85 -155 -56 0 -59 41 -10 193 69
214 155 398 274 589 108 173 124 187 170 150z m-547 -33 c39 -48 1 -129 -60
-129 -77 1 -106 93 -45 141 32 25 78 20 105 -12z m5236 -31 c14 -25 14 -29 -5
-55 -38 -51 -114 -35 -114 25 0 64 88 86 119 30z m-4224 -49 c11 -16 1 -19
-13 -3 -7 8 -8 14 -3 14 5 0 13 -5 16 -11z m-31 -43 c-10 -8 -21 -12 -24 -10
-5 6 21 24 34 24 6 0 1 -6 -10 -14z m2524 -444 c92 -100 168 -188 170 -196 2
-7 -12 -24 -31 -39 l-33 -25 -140 149 c-76 83 -174 189 -216 237 l-77 87 32
33 31 32 49 -47 c26 -27 123 -130 215 -231z m1815 246 c55 -29 63 -84 18 -129
-32 -31 -50 -35 -84 -17 -32 17 -46 39 -46 73 0 33 13 55 44 73 26 15 41 15
68 0z m-5485 -58 c32 -30 30 -82 -4 -109 -15 -12 -37 -21 -49 -21 -31 0 -75
47 -75 79 0 62 81 94 128 51z m3378 -217 c66 -71 142 -153 169 -183 28 -30 65
-70 83 -90 l32 -35 -27 -24 c-16 -13 -134 -122 -263 -241 -525 -485 -771 -711
-885 -810 -66 -57 -164 -145 -218 -194 -96 -88 -98 -89 -116 -70 -175 188
-361 394 -361 398 0 6 106 109 260 252 199 184 1045 978 1115 1046 44 43 82
78 85 78 3 0 59 -57 126 -127z m-426 44 c-41 -39 -214 -203 -384 -362 -169
-160 -349 -329 -400 -377 -89 -85 -91 -87 -108 -67 -9 11 -50 56 -90 100 -40
44 -74 85 -76 90 -2 5 -32 9 -67 9 l-63 0 -68 -70 -68 -71 -60 68 c-33 38 -88
97 -123 133 l-62 65 -40 -40 c-23 -21 -41 -43 -41 -48 0 -5 46 -59 103 -121
143 -155 134 -136 88 -186 l-38 -42 -372 369 -373 370 96 89 96 88 78 -2 c506
-15 1390 -43 1472 -46 102 -3 111 -2 305 51 110 31 211 59 225 63 48 15 45 9
-30 -63z m2700 -154 c39 -49 4 -113 -61 -113 -44 0 -69 27 -69 72 0 66 89 93
130 41z m-5524 -11 c12 -8 34 -46 34 -59 0 -17 -41 -53 -60 -53 -26 0 -60 34
-60 60 0 40 55 73 86 52z m4883 -74 c14 -24 14 -28 -3 -47 -45 -50 -117 4 -79
58 21 30 63 24 82 -11z m-5159 -78 c11 -11 20 -28 20 -38 0 -25 -36 -62 -60
-62 -24 0 -60 37 -60 62 0 24 35 58 60 58 11 0 29 -9 40 -20z m4720 -130 c0
-13 -7 -20 -20 -20 -13 0 -20 7 -20 20 0 13 7 20 20 20 13 0 20 -7 20 -20z
m1104 -44 c44 -18 60 -62 40 -102 -19 -36 -31 -44 -69 -44 -104 0 -110 136 -7
159 1 1 18 -5 36 -13z m-5144 -71 c6 -8 9 -23 5 -34 -8 -25 -41 -36 -60 -21
-15 13 -20 51 -8 63 12 12 50 7 63 -8z m3114 -42 c-16 -54 -74 -310 -164 -733
-33 -157 -65 -303 -70 -325 -13 -55 -116 -530 -186 -865 l-58 -275 -72 -73
-72 -74 -64 88 c-35 48 -83 115 -108 148 -25 34 -104 141 -175 239 -72 98
-153 211 -182 250 -29 40 -55 77 -58 83 -3 6 9 27 28 46 l34 36 98 -106 c55
-59 104 -108 110 -110 6 -1 28 15 49 37 l39 40 -97 106 c-53 59 -96 110 -96
115 0 4 24 29 53 55 28 27 77 73 109 102 l56 53 -25 52 c-14 29 -56 87 -94
130 -38 42 -69 81 -69 86 0 6 87 88 192 184 190 170 423 385 688 632 74 69
138 126 142 126 3 0 0 -21 -8 -47z m1126 -76 c18 -65 58 -104 131 -124 32 -9
59 -19 59 -23 0 -3 -24 -14 -54 -23 -88 -28 -126 -68 -141 -150 -11 -56 -22
-53 -36 9 -16 72 -48 105 -127 134 -34 12 -62 27 -62 31 0 5 20 14 45 20 25 6
63 24 85 40 33 24 43 40 57 89 9 33 19 57 23 53 4 -4 13 -30 20 -56z m-4539
22 c14 -27 -23 -64 -51 -49 -25 13 -26 55 -3 68 21 12 41 5 54 -19z m5061 -57
c16 -39 13 -407 -4 -512 -12 -75 -16 -86 -40 -100 -26 -14 -29 -13 -49 6 l-21
21 17 153 c12 114 14 190 9 306 l-7 154 24 9 c31 11 57 -2 71 -37z m-3389
-120 l78 -79 -141 -134 c-78 -74 -145 -135 -149 -137 -11 -4 -162 159 -158
171 4 13 271 256 282 256 6 1 46 -34 88 -77z m-2049 26 c13 -63 50 -105 116
-129 33 -12 63 -25 65 -29 2 -4 -21 -15 -52 -24 -70 -22 -109 -60 -124 -120
-6 -25 -15 -46 -19 -46 -4 0 -13 21 -19 46 -15 60 -54 98 -124 120 -31 10 -57
21 -57 24 0 4 27 17 59 29 67 24 104 61 122 121 15 48 24 51 33 8z m5854 -184
c29 -33 28 -65 -4 -103 -19 -23 -34 -31 -59 -31 -43 0 -85 41 -85 84 1 79 93
110 148 50z m-1484 -74 c32 -120 82 -167 218 -202 26 -6 48 -14 48 -18 0 -3
-31 -14 -70 -23 -135 -35 -173 -81 -215 -262 -7 -27 -10 -20 -31 59 -37 137
-68 167 -208 203 -36 10 -66 20 -66 23 0 3 33 16 73 28 129 38 161 70 199 199
12 40 25 70 28 65 4 -4 14 -36 24 -72z m-3529 20 c34 -37 -2 -93 -46 -70 -25
14 -26 65 -1 79 24 14 26 14 47 -9z m768 -104 c53 -58 97 -109 97 -114 0 -13
-212 -213 -221 -210 -4 2 -44 45 -90 97 l-82 94 62 60 c47 46 60 64 55 79 -4
15 4 31 32 59 21 21 41 39 44 39 3 0 50 -47 103 -104z m3297 -111 c0 -7 -30
-13 -34 -7 -3 4 4 9 15 9 10 1 19 0 19 -2z m905 -115 c26 -29 24 -79 -4 -102
-31 -25 -57 -23 -86 7 -30 30 -31 54 -4 89 25 32 68 35 94 6z m-3665 -348 c0
-4 -33 -40 -73 -80 l-73 -73 -135 147 c-74 81 -149 165 -168 187 l-34 39 69
69 69 70 173 -176 c94 -96 172 -179 172 -183z m2707 351 c-4 -3 -1 -13 7 -22
11 -13 12 -18 2 -28 -8 -7 -18 -8 -27 -2 -11 7 -10 9 4 9 14 0 16 4 8 19 -9
17 -6 31 7 31 3 0 2 -3 -1 -7z m-4882 -45 c48 -22 46 -97 -4 -118 -37 -15 -64
-2 -80 39 -18 42 1 73 56 90 1 1 14 -4 28 -11z m766 -134 c13 -14 48 -32 79
-40 57 -17 87 -34 57 -34 -33 0 -124 -48 -145 -77 -11 -16 -27 -54 -35 -84
-15 -56 -17 -55 -37 24 -16 60 -60 100 -136 122 -31 9 -53 20 -48 24 5 5 34
17 64 26 67 22 105 58 120 116 18 67 23 68 41 5 10 -32 28 -69 40 -82z m4093
92 c-3 -8 -1 -17 5 -20 6 -4 6 -18 1 -35 -4 -16 -6 -32 -2 -35 3 -3 0 -6 -7
-6 -8 0 -10 7 -6 20 4 13 2 20 -6 20 -7 0 -10 -3 -6 -6 3 -3 2 -17 -4 -31 -6
-16 -6 -22 1 -18 6 3 10 2 10 -4 0 -5 3 -17 7 -27 4 -12 3 -15 -5 -10 -7 4
-12 2 -12 -4 0 -6 -5 -8 -10 -5 -8 5 -7 12 1 23 10 13 9 13 -7 -1 -12 -12 -15
-20 -8 -25 16 -10 25 -52 10 -49 -6 1 -11 -8 -10 -20 0 -19 -2 -21 -15 -10
-12 10 -14 9 -8 -5 3 -10 2 -20 -3 -23 -5 -3 -10 0 -13 7 -2 7 -3 6 -2 -2 0
-8 7 -14 13 -12 16 3 15 -6 -2 -23 -7 -8 -17 -11 -21 -7 -4 4 -5 -6 -1 -22 7
-27 6 -28 -10 -15 -16 13 -16 12 0 -13 25 -39 16 -51 -16 -23 l-28 24 44 98
c24 54 57 137 72 185 16 48 32 88 36 88 4 0 5 -6 2 -14z m-2107 -187 c38 -39
69 -74 71 -79 3 -7 -261 -262 -278 -268 -8 -3 -140 147 -140 159 0 3 42 43 93
87 50 45 112 101 137 126 25 25 46 45 47 46 2 0 33 -32 70 -71z m-984 -134
c87 -91 157 -169 157 -173 0 -17 -100 -106 -108 -97 -25 29 -251 276 -281 308
l-35 37 44 45 c24 25 49 45 55 45 7 0 82 -74 168 -165z m3100 130 c4 -8 2 -17
-4 -20 -5 -4 -6 -11 -3 -17 4 -7 2 -8 -4 -4 -8 4 -12 0 -12 -11 0 -15 -2 -15
-9 -4 -7 11 -3 20 11 33 18 15 18 18 5 18 -10 0 -17 5 -17 10 0 16 27 12 33
-5z m456 -51 c30 -22 25 -52 -33 -205 -121 -319 -316 -610 -577 -865 -454
-441 -1001 -682 -1640 -720 l-116 -7 -21 28 c-16 21 -19 32 -12 46 16 30 27
32 180 40 490 25 955 208 1370 539 327 262 611 652 736 1014 34 99 60 146 82
146 4 0 18 -7 31 -16z m-449 -18 c0 -3 -4 -8 -10 -11 -5 -3 -10 -1 -10 4 0 6
5 11 10 11 6 0 10 -2 10 -4z m875 -21 c28 -27 34 -88 12 -116 -36 -47 -97 -51
-138 -10 -60 61 -24 151 61 151 30 0 47 -6 65 -25z m-916 -26 c-7 -4 -17 -5
-21 -3 -4 3 -8 -7 -8 -22 0 -23 2 -25 15 -14 13 11 14 10 9 -4 -3 -9 -10 -16
-16 -16 -5 0 -6 -5 -2 -12 4 -7 3 -8 -5 -4 -6 4 -8 13 -4 19 4 8 1 7 -9 -1
-10 -8 -19 -9 -22 -3 -4 5 2 14 11 20 17 10 17 10 -2 11 l-20 1 20 9 c11 5 16
9 11 9 -6 1 -1 7 9 15 11 8 25 11 33 8 11 -4 11 -6 1 -13z m-4771 -15 c26 -18
28 -50 5 -76 -20 -22 -41 -23 -65 -1 -24 21 -23 48 2 73 24 24 29 24 58 4z
m4679 -80 c3 -8 11 -14 18 -14 8 0 17 -4 20 -10 7 -11 -23 -3 -41 11 -20 16
-23 -3 -4 -23 20 -22 17 -50 -6 -41 -8 3 -11 10 -7 17 4 6 -1 5 -10 -2 -9 -8
-22 -10 -28 -6 -8 5 -9 3 -3 -7 5 -8 8 -23 7 -34 -1 -16 -1 -16 3 -2 3 9 13
17 22 17 13 0 14 -2 4 -8 -7 -5 -10 -15 -7 -24 3 -8 -1 -21 -10 -28 -9 -7 -15
-8 -15 -2 0 6 6 13 13 15 7 3 5 6 -5 6 -10 1 -18 5 -18 9 0 5 -7 17 -16 28
-15 18 -15 18 -5 -3 16 -33 14 -48 -4 -33 -9 7 -18 10 -22 6 -3 -3 -1 -6 5 -6
7 0 12 -7 12 -15 0 -9 6 -12 15 -9 20 8 19 2 -4 -25 -11 -13 -22 -28 -25 -34
-5 -9 -8 -9 -12 1 -3 6 -10 12 -16 12 -7 0 -7 -4 0 -13 12 -14 -2 -47 -14 -35
-7 7 -38 -19 -40 -34 -1 -4 -2 -12 -3 -18 -2 -17 -19 -11 -24 8 -3 9 -4 5 -4
-9 1 -21 6 -25 24 -23 13 1 21 -2 17 -7 -3 -5 -14 -9 -25 -9 -29 0 -81 -29
-73 -41 4 -7 -2 -9 -17 -5 -13 3 -18 3 -11 0 6 -3 10 -9 7 -13 -2 -5 11 -7 30
-6 27 1 32 -1 24 -11 -6 -7 -17 -10 -25 -7 -19 7 -31 -27 -13 -37 7 -5 11 -11
8 -15 -3 -3 -15 3 -27 13 -16 14 -18 22 -10 30 9 9 9 12 0 12 -20 0 -25 -28
-8 -45 19 -19 21 -35 5 -35 -6 0 -9 -7 -6 -14 4 -10 1 -13 -8 -10 -8 3 -11 12
-8 20 3 9 -2 14 -17 14 -12 0 -18 4 -15 10 4 6 11 8 16 5 5 -3 6 1 3 9 -7 17
-34 30 -34 16 0 -6 5 -10 11 -10 6 0 3 -7 -5 -16 -20 -19 -21 -35 -2 -28 8 3
17 1 21 -5 3 -7 -2 -11 -14 -11 -12 0 -21 -4 -21 -10 0 -5 6 -10 13 -10 16 0
20 -37 5 -46 -7 -5 -9 -1 -5 9 5 13 -4 22 -33 37 -47 24 -57 25 -40 5 7 -8 16
-13 20 -10 4 3 14 -3 21 -12 12 -15 12 -16 -3 -10 -10 3 -20 2 -23 -3 -3 -4 0
-10 6 -12 5 -2 7 -11 3 -21 -4 -12 -13 -16 -26 -11 -10 3 -26 0 -35 -8 -9 -7
-14 -8 -10 -2 4 7 0 14 -8 17 -9 4 -12 1 -9 -7 8 -20 -22 -45 -51 -42 -21 3
-24 0 -19 -18 3 -12 -2 -30 -11 -41 -10 -13 -14 -15 -13 -5 2 8 7 18 12 21 4
4 3 10 -3 13 -6 4 -11 2 -11 -3 0 -6 -5 -11 -11 -11 -5 0 -7 5 -4 10 8 13 -17
9 -27 -4 -4 -6 -2 -18 3 -29 10 -17 8 -17 -11 -7 -15 8 -20 8 -16 1 4 -6 4
-11 -1 -12 -4 0 -16 -2 -25 -4 -10 -2 -18 1 -18 6 0 5 -5 9 -11 9 -6 0 -9 -6
-6 -12 2 -7 11 -13 20 -13 9 0 22 -6 29 -13 9 -9 9 -12 0 -12 -7 0 -12 3 -12
8 0 4 -14 8 -31 8 -17 1 -35 7 -40 15 -7 11 -9 11 -9 -3 0 -9 -6 -19 -12 -22
-7 -3 -3 -3 10 0 15 4 24 0 28 -11 4 -9 13 -14 20 -11 21 8 17 -2 -6 -14 -11
-6 -20 -7 -19 -3 1 4 1 15 0 23 -1 12 -5 11 -16 -4 -14 -19 -70 -33 -59 -14 3
5 12 7 20 4 8 -3 14 -1 14 4 0 6 -7 10 -15 10 -20 0 -19 10 3 27 15 12 13 12
-10 2 -22 -10 -25 -15 -17 -26 10 -12 6 -17 -13 -14 -4 0 -5 -6 -2 -14 4 -9 0
-15 -9 -15 -10 0 -13 7 -10 20 3 11 0 20 -6 20 -5 0 -8 -6 -6 -12 7 -18 -11
-42 -24 -34 -6 4 -9 12 -6 17 4 5 1 9 -5 9 -6 0 -10 -6 -9 -12 3 -28 -2 -48
-12 -48 -5 0 -7 5 -4 10 3 6 2 10 -4 10 -5 0 -16 3 -25 6 -10 4 -19 -3 -28
-20 -7 -17 -17 -25 -26 -21 -8 3 -12 0 -9 -7 2 -7 9 -12 15 -11 6 2 9 -4 6
-12 -10 -25 -37 10 -28 37 6 20 5 21 -10 9 -9 -7 -16 -9 -16 -3 0 16 33 24 42
10 6 -10 8 -10 8 2 0 9 34 32 82 55 358 175 669 456 860 777 35 60 42 66 60
57 10 -6 22 -17 25 -25z m-3168 -109 c66 -69 121 -130 121 -135 0 -14 -80 -85
-194 -173 -55 -43 -138 -107 -183 -142 -45 -36 -85 -65 -89 -65 -3 0 29 37 72
83 112 118 303 347 290 347 -4 0 -17 -9 -29 -21 -12 -12 -45 -32 -73 -46 -28
-13 -132 -85 -230 -159 -236 -179 -422 -314 -431 -314 -5 0 65 71 153 158 173
168 454 462 454 474 0 8 -108 -51 -207 -113 -34 -22 -65 -39 -68 -39 -2 0 59
61 138 135 78 74 145 135 148 135 4 0 61 -56 128 -125z m726 33 c39 -40 85
-89 104 -110 l33 -36 -23 -32 c-21 -28 -25 -29 -36 -14 -11 15 -23 7 -114 -77
l-102 -94 -54 60 c-30 33 -68 76 -84 96 l-29 36 61 53 c42 37 58 57 54 69 -4
12 11 33 49 69 30 29 59 52 63 52 5 0 40 -33 78 -72z m-1920 17 c27 -27 33
-79 12 -106 -53 -69 -157 -37 -157 47 0 52 31 84 82 84 28 0 46 -7 63 -25z
m4399 -11 c3 -8 2 -12 -4 -9 -6 3 -10 10 -10 16 0 14 7 11 14 -7z m142 -79 c9
-22 -4 -62 -22 -69 -39 -15 -73 41 -42 72 17 17 57 15 64 -3z m-4259 -17 c6
-7 40 -71 77 -141 53 -103 64 -132 56 -148 -16 -28 -46 -42 -69 -30 -23 13
-141 243 -141 276 0 13 10 31 22 39 27 19 42 20 55 4z m4021 -33 c-1 -13 -6
-21 -10 -17 -5 5 -6 16 -2 25 9 24 14 21 12 -8z m-712 -107 c24 -10 44 -21 44
-23 0 -3 -18 -14 -41 -25 -32 -17 -46 -33 -63 -72 -23 -52 -28 -53 -39 -7 -10
39 -44 77 -77 84 -46 10 -45 23 2 44 51 22 61 33 78 85 l13 40 19 -53 c18 -46
26 -56 64 -73z m675 60 c0 -10 2 -10 6 0 2 6 9 12 15 12 7 0 6 -5 -1 -14 -6
-7 -24 -13 -39 -13 -15 0 -21 2 -14 4 6 3 10 9 6 14 -3 5 2 9 10 9 9 0 16 -6
17 -12z m784 -13 c47 -46 17 -115 -49 -115 -41 0 -69 29 -69 72 0 62 73 89
118 43z m-5229 -30 c23 -23 23 -27 11 -57 -11 -27 -20 -34 -47 -36 -24 -3 -38
2 -47 14 -20 28 -16 71 9 88 31 22 45 20 74 -9z m4408 3 c7 -11 5 -20 -6 -31
-13 -14 -16 -14 -29 2 -17 21 -23 45 -9 36 5 -3 10 -1 10 5 0 15 21 8 34 -12z
m61 -18 c-3 -5 -12 -10 -18 -10 -7 0 -6 4 3 10 19 12 23 12 15 0z m-130 -59
c-3 -6 3 -14 12 -20 10 -6 13 -11 8 -11 -6 0 -16 5 -22 11 -8 8 -13 8 -17 0
-4 -6 -17 -11 -29 -10 -12 0 -16 3 -9 6 6 2 9 10 5 16 -4 6 0 8 10 4 9 -3 19
-2 22 3 4 6 11 10 16 10 6 0 8 -4 4 -9z m-4130 -241 c21 -23 23 -67 4 -85 -29
-27 -57 -27 -84 -1 -30 30 -32 59 -5 86 25 25 62 26 85 0z m3705 -122 c0 -6
-6 -5 -15 2 -8 7 -15 14 -15 16 0 2 7 1 15 -2 8 -4 15 -11 15 -16z m67 -3 c0
-8 -4 -12 -9 -9 -5 3 -6 10 -3 15 9 13 12 11 12 -6z m1087 -27 c23 -38 -36
-77 -64 -43 -10 12 -10 21 -1 41 13 29 47 30 65 2z m-1139 2 c3 -5 2 -10 -4
-10 -5 0 -13 5 -16 10 -3 6 -2 10 4 10 5 0 13 -4 16 -10z m-31 -16 c6 -15 4
-15 -11 -3 -10 7 -20 15 -22 16 -2 2 3 3 11 3 9 0 19 -7 22 -16z m206 -9 c36
-19 47 -54 28 -92 -11 -23 -21 -29 -53 -31 -36 -3 -42 1 -58 28 -22 36 -16 62
20 90 31 24 27 24 63 5z m-2390 -93 c0 -13 7 -55 16 -94 26 -113 94 -170 232
-193 50 -8 54 -21 10 -30 -118 -23 -186 -62 -217 -124 -15 -29 -51 -167 -51
-196 0 -3 -4 -5 -9 -5 -4 0 -11 21 -15 47 -25 185 -75 240 -250 273 -32 7 -54
15 -50 20 5 4 40 15 78 24 159 39 195 89 235 326 3 14 21 -28 21 -48z m2047
32 c-3 -3 -12 -4 -19 -1 -8 3 -5 6 6 6 11 1 17 -2 13 -5z m-3318 -30 c62 -52
29 -144 -51 -144 -72 0 -112 72 -72 128 32 46 80 53 123 16z m3229 6 c-11 -18
-28 -27 -28 -16 0 6 30 36 36 36 2 0 -1 -9 -8 -20z m-122 -6 c-5 -12 -2 -15 9
-10 9 3 13 2 10 -4 -6 -10 -35 -14 -35 -6 0 10 13 36 17 36 3 0 2 -7 -1 -16z
m79 6 c3 -5 1 -10 -4 -10 -6 0 -11 5 -11 10 0 6 2 10 4 10 3 0 8 -4 11 -10z
m1193 -23 c28 -26 28 -56 1 -91 -26 -33 -73 -35 -106 -4 -27 25 -29 65 -5 94
31 39 68 39 110 1z m-1143 -202 c0 -38 -37 -48 -55 -15 -14 27 4 52 34 48 16
-2 21 -10 21 -33z m-1385 -50 c7 -9 10 -25 6 -41 -5 -20 -12 -25 -34 -22 -19
2 -28 9 -30 26 -6 43 33 68 58 37z m-1476 -147 c21 -29 20 -57 -1 -80 -34 -38
-103 -11 -103 40 0 57 73 85 104 40z m3694 -84 c27 -19 30 -78 5 -106 -25 -28
-77 -24 -102 8 -12 15 -21 34 -21 44 0 10 9 29 21 44 24 30 63 34 97 10z
m-333 -59 c52 -51 12 -135 -65 -135 -31 0 -70 44 -70 78 0 74 84 109 135 57z
m-3039 -19 c37 -37 41 -59 20 -109 -28 -67 -101 -87 -155 -41 -80 67 -41 184
61 184 32 0 47 -7 74 -34z m991 -158 c38 -36 27 -89 -25 -117 -29 -15 -56 -7
-82 26 -25 33 -25 54 1 87 26 33 73 35 106 4z m-635 -45 c35 -33 43 -72 24
-116 -19 -46 -56 -69 -109 -69 -35 1 -47 7 -74 36 -97 106 55 248 159 149z
m2790 10 c39 -35 14 -93 -41 -93 -37 0 -55 65 -25 94 20 21 43 20 66 -1z
m-1643 -80 c15 -77 52 -155 86 -181 16 -13 60 -32 99 -43 39 -11 78 -23 86
-26 8 -3 -24 -17 -71 -32 -48 -15 -100 -37 -116 -49 -35 -25 -66 -91 -84 -179
-7 -35 -16 -63 -19 -63 -3 0 -11 30 -18 68 -24 125 -71 187 -161 212 -20 5
-55 14 -78 20 -24 6 -43 14 -43 18 0 4 32 15 72 24 128 31 181 89 208 226 7
34 16 62 20 62 4 0 13 -26 19 -57z m1318 17 c33 -30 38 -59 16 -89 -26 -35
-68 -39 -99 -10 -32 30 -31 72 2 98 33 26 54 26 81 1z m-2147 -140 c58 -58
-20 -142 -88 -94 -27 18 -30 69 -5 96 21 24 68 23 93 -2z m1824 -1 c51 -40 25
-119 -39 -119 -65 0 -91 74 -41 117 33 28 46 29 80 2z m-389 -94 c30 -29 32
-55 7 -85 -36 -45 -112 -15 -112 44 0 28 35 66 61 66 11 0 31 -11 44 -25z"/>
<path d="M5038 7242 l-17 -36 26 27 c17 17 24 30 18 36 -6 6 -16 -4 -27 -27z"/>
<path d="M5079 7258 c-6 -11 -8 -22 -5 -26 3 -3 6 0 6 6 0 6 7 9 16 5 8 -3 13
-11 11 -17 -3 -6 1 -17 8 -23 10 -10 14 -9 19 3 3 9 1 12 -4 9 -6 -3 -10 3
-10 14 0 12 -5 21 -12 21 -6 0 -8 3 -5 7 4 3 16 -2 27 -12 26 -23 34 -16 12
10 -22 26 -50 28 -63 3z"/>
<path d="M5238 7233 c-11 -14 -11 -15 7 -6 11 6 26 8 33 6 6 -3 12 -1 12 4 0
15 -38 12 -52 -4z"/>
<path d="M4896 7204 c-14 -14 -14 -34 0 -34 3 0 2 5 -1 10 -3 6 -2 10 3 10 6
0 12 7 16 15 7 19 1 19 -18 -1z"/>
<path d="M5049 7203 c-12 -16 -12 -17 1 -7 8 6 22 14 30 17 13 5 12 6 -1 6 -9
1 -23 -7 -30 -16z"/>
<path d="M5310 7210 c0 -5 5 -10 10 -10 6 0 10 5 10 10 0 6 -4 10 -10 10 -5 0
-10 -4 -10 -10z"/>
<path d="M4944 7194 c-18 -14 -18 -15 4 -4 12 6 28 8 34 4 7 -4 8 -3 4 4 -10
16 -18 15 -42 -4z"/>
<path d="M5585 7170 c-3 -5 -1 -10 4 -10 6 0 11 5 11 10 0 6 -2 10 -4 10 -3 0
-8 -4 -11 -10z"/>
<path d="M4684 7159 c-3 -6 -2 -15 3 -20 5 -5 9 -1 10 11 2 22 -2 25 -13 9z"/>
<path d="M5620 7159 c0 -5 5 -7 10 -4 6 3 10 8 10 11 0 2 -4 4 -10 4 -5 0 -10
-5 -10 -11z"/>
<path d="M5767 7153 c-4 -3 -7 -11 -7 -17 0 -6 5 -5 12 2 6 6 9 14 7 17 -3 3
-9 2 -12 -2z"/>
<path d="M4333 7029 c-2 -23 3 -25 10 -4 4 8 3 16 -1 19 -4 3 -9 -4 -9 -15z"/>
<path d="M4400 7032 c-18 -15 -20 -19 -7 -19 10 0 15 3 12 6 -3 3 5 11 17 18
13 7 18 12 12 13 -7 0 -22 -8 -34 -18z"/>
<path d="M6120 7009 c0 -5 5 -7 10 -4 6 3 10 8 10 11 0 2 -4 4 -10 4 -5 0 -10
-5 -10 -11z"/>
<path d="M4310 7001 c0 -5 5 -13 10 -16 6 -3 10 -2 10 4 0 5 -4 13 -10 16 -5
3 -10 2 -10 -4z"/>
<path d="M4344 6998 c-4 -7 -4 -10 1 -6 4 4 15 2 24 -5 14 -11 14 -10 2 6 -16
20 -18 21 -27 5z"/>
<path d="M3935 6760 c3 -5 8 -10 11 -10 2 0 4 5 4 10 0 6 -5 10 -11 10 -5 0
-7 -4 -4 -10z"/>
<path d="M3960 6749 c0 -5 5 -7 10 -4 6 3 10 8 10 11 0 2 -4 4 -10 4 -5 0 -10
-5 -10 -11z"/>
<path d="M3960 6720 c-9 -6 -10 -10 -3 -10 6 0 15 5 18 10 8 12 4 12 -15 0z"/>
<path d="M3820 6596 c0 -2 7 -6 15 -10 8 -3 15 -1 15 4 0 6 -7 10 -15 10 -8 0
-15 -2 -15 -4z"/>
<path d="M7116 4384 c-9 -24 -2 -26 12 -4 7 11 8 20 3 20 -5 0 -12 -7 -15 -16z"/>
<path d="M6800 3850 c20 -13 33 -13 25 0 -3 6 -14 10 -23 10 -15 0 -15 -2 -2
-10z"/>
<path d="M6730 3700 c0 -5 5 -10 11 -10 5 0 7 5 4 10 -3 6 -8 10 -11 10 -2 0
-4 -4 -4 -10z"/>
<path d="M6650 3684 c0 -14 -2 -15 -17 -3 -15 11 -14 10 1 -9 11 -12 21 -22
24 -22 3 0 2 3 -1 6 -3 4 -2 15 4 25 6 13 6 19 -1 19 -5 0 -10 -7 -10 -16z"/>
<path d="M6583 3631 c0 -11 5 -18 9 -15 4 3 5 11 1 19 -7 21 -12 19 -10 -4z"/>
<path d="M6593 3603 c-19 -7 -16 -20 7 -26 21 -5 25 0 12 19 -4 6 -13 9 -19 7z"/>
<path d="M6502 3563 c-10 -4 -10 -8 -1 -19 13 -16 29 -10 29 12 0 15 -6 16
-28 7z"/>
<path d="M6443 3525 c0 -8 4 -15 9 -15 4 0 8 4 8 9 0 6 -4 12 -8 15 -5 3 -9
-1 -9 -9z"/>
<path d="M6376 3488 c3 -5 10 -6 15 -3 13 9 11 12 -6 12 -8 0 -12 -4 -9 -9z"/>
<path d="M6350 3485 c0 -5 5 -17 10 -25 5 -8 10 -10 10 -5 0 6 -5 17 -10 25
-5 8 -10 11 -10 5z"/>
<path d="M6105 3350 c-3 -5 -1 -10 4 -10 6 0 11 5 11 10 0 6 -2 10 -4 10 -3 0
-8 -4 -11 -10z"/>
<path d="M6902 3889 c2 -6 8 -10 13 -10 5 0 11 4 13 10 2 6 -4 11 -13 11 -9 0
-15 -5 -13 -11z"/>
<path d="M3604 8349 c-8 -14 18 -31 30 -19 9 9 0 30 -14 30 -5 0 -12 -5 -16
-11z"/>
<path d="M7096 8234 c-4 -10 -1 -21 6 -26 19 -11 33 -4 33 18 0 24 -30 30 -39
8z"/>
<path d="M3287 8206 c-8 -20 20 -43 35 -28 14 14 3 42 -16 42 -7 0 -16 -6 -19
-14z"/>
<path d="M2964 7965 c-4 -10 -1 -21 7 -26 20 -12 34 -5 34 17 0 24 -33 31 -41
9z"/>
<path d="M7670 7770 c0 -5 5 -10 10 -10 6 0 10 5 10 10 0 6 -4 10 -10 10 -5 0
-10 -4 -10 -10z"/>
<path d="M7910 7490 c0 -5 5 -10 11 -10 5 0 7 5 4 10 -3 6 -8 10 -11 10 -2 0
-4 -4 -4 -10z"/>
<path d="M8214 7085 c-7 -18 3 -35 22 -35 20 0 30 30 13 41 -20 12 -29 11 -35
-6z"/>
<path d="M2124 7015 c-7 -17 10 -35 34 -35 20 0 10 44 -11 48 -9 2 -20 -4 -23
-13z"/>
<path d="M8514 6456 c-8 -21 3 -36 27 -36 15 0 20 6 17 22 -4 27 -35 37 -44
14z"/>
<path d="M1790 6060 c0 -13 7 -20 20 -20 13 0 20 7 20 20 0 13 -7 20 -20 20
-13 0 -20 -7 -20 -20z"/>
<path d="M8656 5925 c-11 -29 -7 -36 17 -33 14 2 22 10 22 23 0 24 -30 32 -39
10z"/>
<path d="M8694 5575 c-4 -9 -2 -21 4 -27 15 -15 44 -1 40 19 -4 23 -36 29 -44
8z"/>
<path d="M1676 5525 c-8 -22 1 -35 25 -35 15 0 20 6 17 22 -4 27 -33 36 -42
13z"/>
<path d="M8737 5264 c-4 -4 -7 -16 -7 -26 0 -13 7 -18 26 -18 21 0 25 4 22 22
-3 23 -27 35 -41 22z"/>
<path d="M8740 5040 c0 -5 5 -10 10 -10 6 0 10 5 10 10 0 6 -4 10 -10 10 -5 0
-10 -4 -10 -10z"/>
<path d="M1648 4958 c-8 -21 2 -38 22 -38 19 0 34 25 24 41 -8 13 -41 11 -46
-3z"/>
<path d="M8690 4620 c0 -5 5 -10 10 -10 6 0 10 5 10 10 0 6 -4 10 -10 10 -5 0
-10 -4 -10 -10z"/>
<path d="M1704 4515 c-4 -9 -2 -21 4 -27 15 -15 44 -1 40 19 -4 23 -36 29 -44
8z"/>
<path d="M8650 4315 c0 -18 5 -25 19 -25 20 0 31 17 24 38 -3 6 -13 12 -24 12
-14 0 -19 -7 -19 -25z"/>
<path d="M1740 4295 c0 -8 9 -15 20 -15 11 0 20 7 20 15 0 8 -9 15 -20 15 -11
0 -20 -7 -20 -15z"/>
<path d="M1827 4053 c-16 -15 -6 -33 18 -33 18 0 25 5 25 20 0 20 -28 28 -43
13z"/>
<path d="M8504 3775 c-8 -20 3 -48 18 -43 6 2 16 12 22 21 8 13 7 20 -4 27
-21 14 -30 12 -36 -5z"/>
<path d="M1918 3753 c-26 -6 -23 -43 2 -43 22 0 38 27 24 39 -5 4 -17 6 -26 4z"/>
<path d="M2061 3436 c-16 -19 -6 -36 20 -36 15 0 20 6 17 22 -4 27 -21 33 -37
14z"/>
<path d="M2215 3080 c-3 -5 -1 -10 4 -10 6 0 11 5 11 10 0 6 -2 10 -4 10 -3 0
-8 -4 -11 -10z"/>
<path d="M7883 2753 c-22 -8 -15 -43 7 -43 13 0 20 7 20 19 0 22 -9 30 -27 24z"/>
<path d="M2936 2345 c-3 -8 -1 -15 4 -15 6 0 10 7 10 15 0 8 -2 15 -4 15 -2 0
-6 -7 -10 -15z"/>
<path d="M7377 2256 c-7 -17 18 -40 33 -31 5 3 10 15 10 26 0 23 -35 27 -43 5z"/>
<path d="M7107 2064 c-16 -16 -7 -44 14 -44 15 0 20 5 17 22 -3 22 -19 33 -31
22z"/>
<path d="M3604 1895 c-7 -18 3 -35 21 -35 15 0 24 19 18 38 -6 17 -32 15 -39
-3z"/>
<path d="M6790 1885 c-15 -18 -5 -35 21 -35 12 0 19 7 19 19 0 24 -25 34 -40
16z"/>
<path d="M3892 1753 c5 -26 38 -29 38 -4 0 15 -6 21 -21 21 -14 0 -19 -5 -17
-17z"/>
<path d="M6460 1725 c0 -18 5 -25 20 -25 15 0 20 7 20 25 0 18 -5 25 -20 25
-15 0 -20 -7 -20 -25z"/>
<path d="M4260 1631 c0 -6 5 -13 10 -16 6 -3 10 1 10 9 0 9 -4 16 -10 16 -5 0
-10 -4 -10 -9z"/>
<path d="M5843 1583 c-7 -2 -13 -14 -13 -25 0 -14 6 -19 23 -16 14 2 22 10 22
22 0 21 -12 28 -32 19z"/>
<path d="M5493 1524 c-8 -22 18 -37 36 -20 7 8 10 19 7 25 -10 16 -36 13 -43
-5z"/>
<path d="M5190 1490 c0 -5 5 -10 11 -10 5 0 7 5 4 10 -3 6 -8 10 -11 10 -2 0
-4 -4 -4 -10z"/>
</g>
</svg>
